<svg width="124" height="124" viewBox="0 0 124 124" fill="none" xmlns="http://www.w3.org/2000/svg">
<path d="M62.3152 106.144C82.9612 97.464 97.9032 82.646 105.963 67.642C113.899 52.7 115.015 37.82 107.947 28.892C101.561 20.894 93.2532 17.856 84.8212 18.104C76.3892 18.352 68.2052 22.01 62.3152 27.156C56.4252 22.01 48.2412 18.352 39.8092 18.104C31.3772 17.856 23.0692 20.894 16.6832 28.892C9.61523 37.82 10.7312 52.7 18.7912 67.642C26.7272 82.646 41.6692 97.464 62.3152 106.144Z" fill="#9B2235"/>
<path d="M31.6279 64.3139H40.8837L46.6686 49.2732L58.2384 78.1976L64.0233 55.6366L69.8082 66.6279L75.5931 45.8022L79.064 55.0581H94.1047" stroke="white" stroke-width="3" stroke-linejoin="round"/>
<ellipse cx="30.4709" cy="64.3139" rx="3.47094" ry="3.47094" fill="white"/>
<ellipse cx="93.9119" cy="54.6724" rx="3.47094" ry="3.47094" fill="white"/>
</svg>
